<svg xmlns="http://www.w3.org/2000/svg" xmlns:xlink="http://www.w3.org/1999/xlink" width="3241" zoomAndPan="magnify" viewBox="0 0 2430.75 923.249971" height="1231" preserveAspectRatio="xMidYMid meet" version="1.2"><defs><clipPath id="3461ac2981"><path d="M 0.101562 277 L 249 277 L 249 520 L 0.101562 520 Z M 0.101562 277 "/></clipPath><clipPath id="22c51912c7"><path d="M 216 270 L 550.832031 270 L 550.832031 594.539062 L 216 594.539062 Z M 216 270 "/></clipPath><clipPath id="32fec1d8b2"><rect x="0" width="2357" y="0" height="595"/></clipPath></defs><g id="7fc66deed6"><g transform="matrix(1,0,0,1,15,169)"><g clip-path="url(#32fec1d8b2)"><path style=" stroke:none;fill-rule:nonzero;fill:#800080;fill-opacity:1;" d="M 150.015625 158.519531 C 147.835938 157.453125 145.742188 156.351562 143.714844 155.226562 C 149.636719 127.21875 156.910156 92.480469 163.082031 62.101562 C 163.765625 58.75 164.488281 55.539062 165.269531 52.496094 C 170.351562 32.527344 177.386719 19.0625 185.039062 11.125 C 194.441406 1.355469 204.746094 -0.0078125 213.390625 5.300781 C 217.015625 7.527344 220.34375 10.914062 223.1875 15.355469 C 225.199219 18.492188 227.6875 21.371094 230.445312 23.988281 C 235.480469 28.761719 241.175781 32.46875 247.253906 35.085938 C 262.355469 41.625 279.726562 41.515625 294.757812 34.742188 C 300.527344 32.136719 305.949219 28.546875 310.769531 23.988281 C 313.53125 21.371094 316.003906 18.492188 318.03125 15.355469 C 321.214844 10.402344 325.007812 6.746094 329.117188 4.566406 C 336.875 0.480469 345.804688 1.628906 354.1875 9.207031 C 362.253906 16.503906 369.8125 29.746094 375.292969 50.007812 C 376.324219 53.789062 377.273438 57.824219 378.136719 62.101562 C 384.507812 93.523438 392.066406 129.609375 398.105469 158.09375 C 397.820312 158.238281 397.535156 158.378906 397.253906 158.519531 C 364.515625 174.675781 320.625 183.582031 273.640625 183.582031 C 226.667969 183.582031 182.765625 174.675781 150.015625 158.519531 Z M 150.015625 158.519531 "/><path style=" stroke:none;fill-rule:nonzero;fill:#800080;fill-opacity:1;" d="M 489.679688 236.429688 C 489.679688 270.738281 391.601562 298.546875 270.609375 298.546875 C 149.625 298.546875 51.535156 270.738281 51.535156 236.429688 C 51.535156 216.804688 83.65625 199.285156 133.804688 187.90625 C 134.265625 188.140625 134.714844 188.367188 135.175781 188.589844 C 172.449219 206.996094 221.613281 217.121094 273.640625 217.121094 C 325.398438 217.121094 374.347656 207.101562 411.535156 188.863281 C 459.3125 200.257812 489.679688 217.335938 489.679688 236.429688 Z M 489.679688 236.429688 "/><g clip-rule="nonzero" clip-path="url(#3461ac2981)"><path style=" stroke:none;fill-rule:nonzero;fill:#800080;fill-opacity:1;" d="M 248.519531 485.285156 C 246.09375 488.886719 243.734375 492.511719 241.449219 496.195312 C 236.390625 504.285156 231.902344 512.101562 227.9375 519.5625 L 64.222656 436.785156 L 120.324219 413.417969 L 0.101562 345.496094 L 62.90625 277.335938 C 75.09375 284.75 91.238281 291.335938 110.992188 296.949219 C 111.167969 296.996094 111.347656 297.042969 111.511719 297.089844 C 126.058594 374.667969 193.980469 442.199219 248.519531 485.285156 Z M 248.519531 485.285156 "/></g><g clip-rule="nonzero" clip-path="url(#22c51912c7)"><path style=" stroke:none;fill-rule:nonzero;fill:#800080;fill-opacity:1;" d="M 430.238281 421.09375 L 493.683594 434.121094 C 493.683594 434.121094 320.707031 456.164062 216.507812 594.414062 C 216.507812 594.414062 249.503906 441.738281 422.445312 358.605469 C 427.632812 356.121094 430.902344 350.835938 430.902344 345.082031 L 430.902344 296.746094 C 452.457031 290.589844 469.664062 283.257812 482.066406 274.945312 C 484.363281 273.402344 486.472656 271.839844 488.390625 270.277344 L 551.113281 345.507812 Z M 430.238281 421.09375 "/></g><path style=" stroke:none;fill-rule:nonzero;fill:#800080;fill-opacity:1;" d="M 255.601562 326.464844 C 253.636719 344.335938 226.113281 355.953125 194.132812 352.414062 C 162.144531 348.882812 137.816406 331.53125 139.808594 313.660156 C 140.152344 310.472656 141.324219 307.464844 143.230469 304.730469 C 175.976562 311.125 213.867188 314.925781 253.707031 315.78125 C 255.320312 319.238281 256.003906 322.851562 255.601562 326.464844 Z M 255.601562 326.464844 "/><path style=" stroke:none;fill-rule:nonzero;fill:#800080;fill-opacity:1;" d="M 357.101562 352.414062 C 325.113281 355.964844 297.578125 344.335938 295.609375 326.464844 C 295.207031 322.746094 295.929688 319.027344 297.660156 315.472656 C 337.324219 314.121094 374.726562 309.8125 406.679688 302.929688 C 409.332031 306.152344 411.003906 309.753906 411.429688 313.660156 C 413.394531 331.53125 389.070312 348.882812 357.101562 352.414062 Z M 357.101562 352.414062 "/><g style="fill:#800080;fill-opacity:1;"><g transform="translate(551.076836, 271.435332)"><path style="stroke:none" d="M 166.234375 0 L 166.234375 -80.65625 L 91.15625 -80.65625 L 91.15625 0 L 22.859375 0 L 22.859375 -212.59375 L 91.15625 -212.59375 L 91.15625 -135.03125 L 166.234375 -135.03125 L 166.234375 -212.59375 L 234.53125 -212.59375 L 234.53125 0 Z M 166.234375 0 "/></g></g><g style="fill:#800080;fill-opacity:1;"><g transform="translate(818.666715, 271.435332)"><path style="stroke:none" d="M 22.859375 -212.59375 L 206.71875 -212.59375 L 206.71875 -161.609375 L 91.15625 -161.609375 L 91.15625 -132.25 L 190.03125 -132.25 L 190.03125 -83.4375 L 91.15625 -83.4375 L 91.15625 -50.984375 L 208.890625 -50.984375 L 208.890625 0 L 22.859375 0 Z M 22.859375 -212.59375 "/></g></g><g style="fill:#800080;fill-opacity:1;"><g transform="translate(1051.958155, 271.435332)"><path style="stroke:none" d="M 205.484375 0 L 205.484375 -76.625 C 205.484375 -86.101562 205.84375 -95.835938 206.5625 -105.828125 C 207.28125 -115.816406 208.050781 -124.210938 208.875 -131.015625 C 209.707031 -137.816406 210.222656 -142.144531 210.421875 -144 L 209.1875 -144 L 169.953125 0 L 116.5 0 L 76.9375 -143.6875 L 75.703125 -143.6875 C 75.910156 -141.832031 76.476562 -137.554688 77.40625 -130.859375 C 78.332031 -124.160156 79.207031 -115.816406 80.03125 -105.828125 C 80.851562 -95.835938 81.265625 -86.101562 81.265625 -76.625 L 81.265625 0 L 18.546875 0 L 18.546875 -212.59375 L 114.953125 -212.59375 L 147.078125 -89.921875 L 148.3125 -89.921875 L 180.140625 -212.59375 L 273.15625 -212.59375 L 273.15625 0 Z M 205.484375 0 "/></g></g><g style="fill:#800080;fill-opacity:1;"><g transform="translate(1353.84648, 271.435332)"><path style="stroke:none" d="M 165.3125 0 L 156.359375 -29.96875 L 81.890625 -29.96875 L 72.921875 0 L 3.09375 0 L 80.65625 -212.59375 L 160.0625 -212.59375 L 237.625 0 Z M 96.09375 -77.5625 L 142.140625 -77.5625 L 119.890625 -153.265625 L 118.65625 -153.265625 Z M 96.09375 -77.5625 "/></g></g><g style="fill:#800080;fill-opacity:1;"><g transform="translate(1604.44174, 271.435332)"><path style="stroke:none" d="M 174.890625 0 L 85.59375 -103.203125 L 85.59375 0 L 22.859375 0 L 22.859375 -212.59375 L 82.5 -212.59375 L 171.796875 -107.84375 L 171.796875 -212.59375 L 234.53125 -212.59375 L 234.53125 0 Z M 174.890625 0 "/></g></g><g style="fill:#800080;fill-opacity:1;"><g transform="translate(1872.031618, 271.435332)"><path style="stroke:none" d="M 145.234375 -158.203125 L 145.234375 0 L 76.9375 0 L 76.9375 -158.203125 L 7.109375 -158.203125 L 7.109375 -212.59375 L 214.75 -212.59375 L 214.75 -158.203125 Z M 145.234375 -158.203125 "/></g></g><g style="fill:#800080;fill-opacity:1;"><g transform="translate(2105.32301, 271.435332)"><path style="stroke:none" d="M 165.3125 0 L 156.359375 -29.96875 L 81.890625 -29.96875 L 72.921875 0 L 3.09375 0 L 80.65625 -212.59375 L 160.0625 -212.59375 L 237.625 0 Z M 96.09375 -77.5625 L 142.140625 -77.5625 L 119.890625 -153.265625 L 118.65625 -153.265625 Z M 96.09375 -77.5625 "/></g></g><g style="fill:#800080;fill-opacity:1;"><g transform="translate(551.076836, 527.38638)"><path style="stroke:none" d="M 142.140625 -212.59375 C 155.328125 -212.59375 167.066406 -209.550781 177.359375 -203.46875 C 187.660156 -197.394531 195.695312 -189.050781 201.46875 -178.4375 C 207.238281 -167.832031 210.125 -155.941406 210.125 -142.765625 L 210.125 -138.734375 C 210.125 -125.554688 207.238281 -113.609375 201.46875 -102.890625 C 195.695312 -92.179688 187.660156 -83.785156 177.359375 -77.703125 C 167.066406 -71.628906 155.328125 -68.59375 142.140625 -68.59375 L 91.15625 -68.59375 L 91.15625 0 L 22.859375 0 L 22.859375 -212.59375 Z M 91.15625 -118.34375 L 119.28125 -118.34375 C 126.488281 -118.34375 131.894531 -120.195312 135.5 -123.90625 C 139.101562 -127.613281 140.90625 -132.660156 140.90625 -139.046875 L 140.90625 -141.515625 C 140.90625 -148.109375 139.101562 -153.207031 135.5 -156.8125 C 131.894531 -160.414062 126.488281 -162.21875 119.28125 -162.21875 L 91.15625 -162.21875 Z M 91.15625 -118.34375 "/></g></g><g style="fill:#800080;fill-opacity:1;"><g transform="translate(784.368276, 527.38638)"><path style="stroke:none" d="M 166.234375 0 L 166.234375 -80.65625 L 91.15625 -80.65625 L 91.15625 0 L 22.859375 0 L 22.859375 -212.59375 L 91.15625 -212.59375 L 91.15625 -135.03125 L 166.234375 -135.03125 L 166.234375 -212.59375 L 234.53125 -212.59375 L 234.53125 0 Z M 166.234375 0 "/></g></g><g style="fill:#800080;fill-opacity:1;"><g transform="translate(1051.958155, 527.38638)"><path style="stroke:none" d="M 234.53125 -85.59375 C 234.53125 -56.550781 225.363281 -34.40625 207.03125 -19.15625 C 188.695312 -3.914062 162.640625 3.703125 128.859375 3.703125 C 95.066406 3.703125 68.953125 -3.914062 50.515625 -19.15625 C 32.078125 -34.40625 22.859375 -56.550781 22.859375 -85.59375 L 22.859375 -212.59375 L 91.15625 -212.59375 L 91.15625 -86.515625 C 91.15625 -74.566406 94.347656 -65.039062 100.734375 -57.9375 C 107.117188 -50.832031 116.390625 -47.28125 128.546875 -47.28125 C 140.703125 -47.28125 150.019531 -50.882812 156.5 -58.09375 C 162.988281 -65.300781 166.234375 -74.773438 166.234375 -86.515625 L 166.234375 -212.59375 L 234.53125 -212.59375 Z M 234.53125 -85.59375 "/></g></g><g style="fill:#800080;fill-opacity:1;"><g transform="translate(1319.548033, 527.38638)"><path style="stroke:none" d="M 154.8125 0 L 86.515625 0 L 86.515625 -82.5 L 2.15625 -212.59375 L 80.65625 -212.59375 L 121.4375 -141.828125 L 122.671875 -141.828125 L 163.46875 -212.59375 L 237.9375 -212.59375 L 154.8125 -82.5 Z M 154.8125 0 "/></g></g><g style="fill:#800080;fill-opacity:1;"><g transform="translate(1570.143245, 527.38638)"><path style="stroke:none" d="M 165.3125 0 L 156.359375 -29.96875 L 81.890625 -29.96875 L 72.921875 0 L 3.09375 0 L 80.65625 -212.59375 L 160.0625 -212.59375 L 237.625 0 Z M 96.09375 -77.5625 L 142.140625 -77.5625 L 119.890625 -153.265625 L 118.65625 -153.265625 Z M 96.09375 -77.5625 "/></g></g><g style="fill:#800080;fill-opacity:1;"><g transform="translate(1820.73841, 527.38638)"><path style="stroke:none" d="M 22.859375 -212.59375 L 91.15625 -212.59375 L 91.15625 -54.390625 L 200.234375 -54.390625 L 200.234375 0 L 22.859375 0 Z M 22.859375 -212.59375 "/></g></g></g></g></g></svg>