<svg xmlns="http://www.w3.org/2000/svg" xmlns:xlink="http://www.w3.org/1999/xlink" width="3241" zoomAndPan="magnify" viewBox="0 0 2430.75 923.249971" height="1231" preserveAspectRatio="xMidYMid meet" version="1.2"><defs><clipPath id="b1c0ce5bee"><path d="M 12.101562 458 L 341 458 L 341 779 L 12.101562 779 Z M 12.101562 458 "/></clipPath><clipPath id="f698e26562"><path d="M 297 449 L 739.53125 449 L 739.53125 877.65625 L 297 877.65625 Z M 297 449 "/></clipPath></defs><g id="ca9c5d8a86"><path style=" stroke:none;fill-rule:nonzero;fill:#000000;fill-opacity:1;" d="M 210.035156 301.835938 C 207.15625 300.425781 204.390625 298.972656 201.714844 297.488281 C 209.535156 260.507812 219.136719 214.644531 227.28125 174.535156 C 228.1875 170.109375 229.144531 165.871094 230.175781 161.851562 C 236.882812 135.488281 246.171875 117.710938 256.273438 107.234375 C 268.6875 94.332031 282.292969 92.535156 293.707031 99.539062 C 298.492188 102.480469 302.886719 106.953125 306.640625 112.816406 C 309.296875 116.960938 312.582031 120.757812 316.226562 124.214844 C 322.871094 130.515625 330.390625 135.410156 338.414062 138.867188 C 358.351562 147.5 381.289062 147.359375 401.132812 138.414062 C 408.75 134.972656 415.910156 130.234375 422.273438 124.214844 C 425.917969 120.757812 429.1875 116.960938 431.859375 112.816406 C 436.066406 106.277344 441.070312 101.449219 446.496094 98.570312 C 456.738281 93.175781 468.527344 94.691406 479.597656 104.699219 C 490.25 114.332031 500.226562 131.8125 507.464844 158.570312 C 508.824219 163.558594 510.074219 168.890625 511.21875 174.535156 C 519.628906 216.019531 529.605469 263.664062 537.582031 301.273438 C 537.207031 301.460938 536.832031 301.648438 536.457031 301.835938 C 493.234375 323.164062 435.285156 334.921875 373.253906 334.921875 C 311.238281 334.921875 253.269531 323.164062 210.035156 301.835938 Z M 210.035156 301.835938 "/><path style=" stroke:none;fill-rule:nonzero;fill:#000000;fill-opacity:1;" d="M 658.484375 404.695312 C 658.484375 449.996094 528.996094 486.710938 369.25 486.710938 C 209.519531 486.710938 80.011719 449.996094 80.011719 404.695312 C 80.011719 378.785156 122.421875 355.65625 188.628906 340.628906 C 189.238281 340.941406 189.832031 341.238281 190.441406 341.535156 C 239.652344 365.835938 304.558594 379.207031 373.253906 379.207031 C 441.585938 379.207031 506.214844 365.976562 555.3125 341.894531 C 618.394531 356.9375 658.484375 379.488281 658.484375 404.695312 Z M 658.484375 404.695312 "/><g clip-rule="nonzero" clip-path="url(#b1c0ce5bee)"><path style=" stroke:none;fill-rule:nonzero;fill:#000000;fill-opacity:1;" d="M 340.085938 733.257812 C 336.882812 738.011719 333.769531 742.796875 330.75 747.660156 C 324.074219 758.339844 318.148438 768.660156 312.910156 778.511719 L 96.761719 669.222656 L 170.832031 638.371094 L 12.101562 548.695312 L 95.023438 458.703125 C 111.117188 468.492188 132.429688 477.1875 158.511719 484.597656 C 158.746094 484.660156 158.980469 484.722656 159.199219 484.785156 C 178.402344 587.207031 268.078125 676.371094 340.085938 733.257812 Z M 340.085938 733.257812 "/></g><g clip-rule="nonzero" clip-path="url(#f698e26562)"><path style=" stroke:none;fill-rule:nonzero;fill:#000000;fill-opacity:1;" d="M 580.003906 648.503906 L 663.769531 665.707031 C 663.769531 665.707031 435.394531 694.804688 297.820312 877.335938 C 297.820312 877.335938 341.386719 675.761719 569.714844 566.003906 C 576.5625 562.722656 580.878906 555.746094 580.878906 548.148438 L 580.878906 484.332031 C 609.339844 476.203125 632.058594 466.523438 648.429688 455.546875 C 651.464844 453.511719 654.25 451.449219 656.78125 449.382812 L 739.59375 548.710938 Z M 580.003906 648.503906 "/></g><path style=" stroke:none;fill-rule:nonzero;fill:#000000;fill-opacity:1;" d="M 349.4375 523.566406 C 346.84375 547.164062 310.5 562.503906 268.28125 557.828125 C 226.046875 553.167969 193.929688 530.257812 196.554688 506.664062 C 197.007812 502.457031 198.558594 498.484375 201.074219 494.871094 C 244.3125 503.316406 294.332031 508.335938 346.9375 509.460938 C 349.0625 514.027344 349.96875 518.796875 349.4375 523.566406 Z M 349.4375 523.566406 "/><path style=" stroke:none;fill-rule:nonzero;fill:#000000;fill-opacity:1;" d="M 483.445312 557.828125 C 441.210938 562.519531 404.855469 547.164062 402.257812 523.566406 C 401.726562 518.65625 402.679688 513.746094 404.964844 509.054688 C 457.332031 507.273438 506.714844 501.582031 548.902344 492.496094 C 552.40625 496.75 554.609375 501.503906 555.171875 506.664062 C 557.769531 530.257812 525.648438 553.167969 483.445312 557.828125 Z M 483.445312 557.828125 "/><g style="fill:#000000;fill-opacity:1;"><g transform="translate(637.232882, 377.284993)"><path style="stroke:none" d="M 164.234375 0 L 164.234375 -79.671875 L 90.0625 -79.671875 L 90.0625 0 L 22.59375 0 L 22.59375 -210.03125 L 90.0625 -210.03125 L 90.0625 -133.40625 L 164.234375 -133.40625 L 164.234375 -210.03125 L 231.703125 -210.03125 L 231.703125 0 Z M 164.234375 0 "/></g></g><g style="fill:#000000;fill-opacity:1;"><g transform="translate(901.605596, 377.284993)"><path style="stroke:none" d="M 22.59375 -210.03125 L 204.234375 -210.03125 L 204.234375 -159.65625 L 90.0625 -159.65625 L 90.0625 -130.65625 L 187.75 -130.65625 L 187.75 -82.421875 L 90.0625 -82.421875 L 90.0625 -50.375 L 206.375 -50.375 L 206.375 0 L 22.59375 0 Z M 22.59375 -210.03125 "/></g></g><g style="fill:#000000;fill-opacity:1;"><g transform="translate(1132.092185, 377.284993)"><path style="stroke:none" d="M 203.015625 0 L 203.015625 -75.703125 C 203.015625 -85.066406 203.367188 -94.679688 204.078125 -104.546875 C 204.796875 -114.421875 205.5625 -122.71875 206.375 -129.4375 C 207.1875 -136.15625 207.691406 -140.429688 207.890625 -142.265625 L 206.671875 -142.265625 L 167.90625 0 L 115.09375 0 L 76.015625 -141.953125 L 74.796875 -141.953125 C 74.992188 -140.117188 75.550781 -135.894531 76.46875 -129.28125 C 77.382812 -122.664062 78.25 -114.421875 79.0625 -104.546875 C 79.875 -94.679688 80.28125 -85.066406 80.28125 -75.703125 L 80.28125 0 L 18.3125 0 L 18.3125 -210.03125 L 113.5625 -210.03125 L 145.3125 -88.84375 L 146.53125 -88.84375 L 177.984375 -210.03125 L 269.875 -210.03125 L 269.875 0 Z M 203.015625 0 "/></g></g><g style="fill:#000000;fill-opacity:1;"><g transform="translate(1430.350978, 377.284993)"><path style="stroke:none" d="M 163.328125 0 L 154.46875 -29.609375 L 80.90625 -29.609375 L 72.046875 0 L 3.046875 0 L 79.671875 -210.03125 L 158.140625 -210.03125 L 234.765625 0 Z M 94.9375 -76.625 L 140.421875 -76.625 L 118.453125 -151.421875 L 117.234375 -151.421875 Z M 94.9375 -76.625 "/></g></g><g style="fill:#000000;fill-opacity:1;"><g transform="translate(1677.933359, 377.284993)"><path style="stroke:none" d="M 172.796875 0 L 84.5625 -101.96875 L 84.5625 0 L 22.59375 0 L 22.59375 -210.03125 L 81.515625 -210.03125 L 169.734375 -106.546875 L 169.734375 -210.03125 L 231.703125 -210.03125 L 231.703125 0 Z M 172.796875 0 "/></g></g><g style="fill:#000000;fill-opacity:1;"><g transform="translate(1942.306027, 377.284993)"><path style="stroke:none" d="M 143.484375 -156.296875 L 143.484375 0 L 76.015625 0 L 76.015625 -156.296875 L 7.015625 -156.296875 L 7.015625 -210.03125 L 212.171875 -210.03125 L 212.171875 -156.296875 Z M 143.484375 -156.296875 "/></g></g><g style="fill:#000000;fill-opacity:1;"><g transform="translate(2172.792562, 377.284993)"><path style="stroke:none" d="M 163.328125 0 L 154.46875 -29.609375 L 80.90625 -29.609375 L 72.046875 0 L 3.046875 0 L 79.671875 -210.03125 L 158.140625 -210.03125 L 234.765625 0 Z M 94.9375 -76.625 L 140.421875 -76.625 L 118.453125 -151.421875 L 117.234375 -151.421875 Z M 94.9375 -76.625 "/></g></g><g style="fill:#000000;fill-opacity:1;"><g transform="translate(738.887488, 709.691676)"><path style="stroke:none" d=""/></g></g><g style="fill:#000000;fill-opacity:1;"><g transform="translate(850.627827, 709.691676)"><path style="stroke:none" d="M 140.421875 -210.03125 C 153.453125 -210.03125 165.054688 -207.023438 175.234375 -201.015625 C 185.410156 -195.015625 193.347656 -186.773438 199.046875 -176.296875 C 204.742188 -165.816406 207.59375 -154.066406 207.59375 -141.046875 L 207.59375 -137.078125 C 207.59375 -124.046875 204.742188 -112.238281 199.046875 -101.65625 C 193.347656 -91.070312 185.410156 -82.773438 175.234375 -76.765625 C 165.054688 -70.765625 153.453125 -67.765625 140.421875 -67.765625 L 90.0625 -67.765625 L 90.0625 0 L 22.59375 0 L 22.59375 -210.03125 Z M 90.0625 -116.921875 L 117.84375 -116.921875 C 124.957031 -116.921875 130.296875 -118.75 133.859375 -122.40625 C 137.421875 -126.070312 139.203125 -131.0625 139.203125 -137.375 L 139.203125 -139.8125 C 139.203125 -146.332031 137.421875 -151.367188 133.859375 -154.921875 C 130.296875 -158.484375 124.957031 -160.265625 117.84375 -160.265625 L 90.0625 -160.265625 Z M 90.0625 -116.921875 "/></g></g><g style="fill:#000000;fill-opacity:1;"><g transform="translate(1081.114416, 709.691676)"><path style="stroke:none" d="M 164.234375 0 L 164.234375 -79.671875 L 90.0625 -79.671875 L 90.0625 0 L 22.59375 0 L 22.59375 -210.03125 L 90.0625 -210.03125 L 90.0625 -133.40625 L 164.234375 -133.40625 L 164.234375 -210.03125 L 231.703125 -210.03125 L 231.703125 0 Z M 164.234375 0 "/></g></g><g style="fill:#000000;fill-opacity:1;"><g transform="translate(1345.48713, 709.691676)"><path style="stroke:none" d="M 231.703125 -84.5625 C 231.703125 -55.863281 222.644531 -33.984375 204.53125 -18.921875 C 186.425781 -3.867188 160.679688 3.65625 127.296875 3.65625 C 93.921875 3.65625 68.125 -3.867188 49.90625 -18.921875 C 31.695312 -33.984375 22.59375 -55.863281 22.59375 -84.5625 L 22.59375 -210.03125 L 90.0625 -210.03125 L 90.0625 -85.484375 C 90.0625 -73.671875 93.210938 -64.253906 99.515625 -57.234375 C 105.828125 -50.210938 114.988281 -46.703125 127 -46.703125 C 139.007812 -46.703125 148.21875 -50.265625 154.625 -57.390625 C 161.03125 -64.515625 164.234375 -73.878906 164.234375 -85.484375 L 164.234375 -210.03125 L 231.703125 -210.03125 Z M 231.703125 -84.5625 "/></g></g><g style="fill:#000000;fill-opacity:1;"><g transform="translate(1609.859844, 709.691676)"><path style="stroke:none" d="M 152.953125 0 L 85.484375 0 L 85.484375 -81.515625 L 2.140625 -210.03125 L 79.671875 -210.03125 L 119.96875 -140.125 L 121.203125 -140.125 L 161.5 -210.03125 L 235.0625 -210.03125 L 152.953125 -81.515625 Z M 152.953125 0 "/></g></g><g style="fill:#000000;fill-opacity:1;"><g transform="translate(1857.442179, 709.691676)"><path style="stroke:none" d="M 163.328125 0 L 154.46875 -29.609375 L 80.90625 -29.609375 L 72.046875 0 L 3.046875 0 L 79.671875 -210.03125 L 158.140625 -210.03125 L 234.765625 0 Z M 94.9375 -76.625 L 140.421875 -76.625 L 118.453125 -151.421875 L 117.234375 -151.421875 Z M 94.9375 -76.625 "/></g></g><g style="fill:#000000;fill-opacity:1;"><g transform="translate(2105.024459, 709.691676)"><path style="stroke:none" d="M 22.59375 -210.03125 L 90.0625 -210.03125 L 90.0625 -53.734375 L 197.828125 -53.734375 L 197.828125 0 L 22.59375 0 Z M 22.59375 -210.03125 "/></g></g><g style="fill:#000000;fill-opacity:1;"><g transform="translate(1322.100994, 465.954776)"><path style="stroke:none" d="M 27.609375 -5.921875 C 29.085938 -6.296875 30.304688 -6.796875 31.265625 -7.421875 C 32.222656 -8.054688 32.703125 -8.921875 32.703125 -10.015625 C 32.703125 -11.335938 32.070312 -12.351562 30.8125 -13.0625 C 29.550781 -13.769531 27.46875 -14.125 24.5625 -14.125 C 21.332031 -14.125 18.878906 -13.535156 17.203125 -12.359375 C 15.535156 -11.179688 14.703125 -9.582031 14.703125 -7.5625 C 14.703125 -6.1875 15.015625 -4.851562 15.640625 -3.5625 C 16.273438 -2.28125 17.414062 -0.847656 19.0625 0.734375 C 20.707031 2.328125 23.085938 4.273438 26.203125 6.578125 L 19.0625 13.890625 C 15.9375 11.304688 13.222656 8.863281 10.921875 6.5625 C 8.617188 4.269531 6.835938 1.929688 5.578125 -0.453125 C 4.328125 -2.835938 3.703125 -5.425781 3.703125 -8.21875 C 3.703125 -10.300781 4.097656 -12.148438 4.890625 -13.765625 C 5.679688 -15.378906 6.734375 -16.789062 8.046875 -18 C 7.066406 -19.144531 6.257812 -20.441406 5.625 -21.890625 C 5 -23.347656 4.6875 -25.035156 4.6875 -26.953125 C 4.6875 -28.703125 5 -30.191406 5.625 -31.421875 C 6.257812 -32.648438 7.097656 -33.648438 8.140625 -34.421875 C 9.503906 -35.515625 11.128906 -36.296875 13.015625 -36.765625 C 14.910156 -37.234375 17.53125 -37.46875 20.875 -37.46875 L 29.25 -37.46875 L 29.25 -42.0625 L 0 -42.0625 L 0 -51.09375 L 47.984375 -51.09375 L 47.984375 -42.0625 L 40.25 -42.0625 L 40.25 -28.421875 L 21.203125 -28.421875 C 19.660156 -28.421875 18.585938 -28.351562 17.984375 -28.21875 C 17.390625 -28.082031 16.898438 -27.847656 16.515625 -27.515625 C 15.804688 -26.972656 15.453125 -26.15625 15.453125 -25.0625 C 15.453125 -24.125 15.832031 -23.191406 16.59375 -22.265625 C 19.164062 -22.921875 21.929688 -23.25 24.890625 -23.25 C 29.328125 -23.25 32.914062 -22.628906 35.65625 -21.390625 C 38.394531 -20.160156 40.394531 -18.5625 41.65625 -16.59375 C 42.914062 -14.625 43.546875 -12.546875 43.546875 -10.359375 C 43.546875 -3.617188 39.21875 0.765625 30.5625 2.796875 Z M 27.609375 -5.921875 "/></g></g><g style="fill:#000000;fill-opacity:1;"><g transform="translate(1368.932664, 465.954776)"><path style="stroke:none" d="M -17 -50.53125 C -17.9375 -53.757812 -18.851562 -56.398438 -19.75 -58.453125 C -20.65625 -60.503906 -21.695312 -62.007812 -22.875 -62.96875 C -24.050781 -63.925781 -25.570312 -64.40625 -27.4375 -64.40625 C -28.53125 -64.40625 -29.539062 -64.296875 -30.46875 -64.078125 C -31.40625 -63.859375 -32.257812 -63.613281 -33.03125 -63.34375 L -35.984375 -71.96875 C -34.671875 -72.519531 -33.316406 -72.929688 -31.921875 -73.203125 C -30.523438 -73.472656 -29.003906 -73.609375 -27.359375 -73.609375 C -25.171875 -73.609375 -23.144531 -73.320312 -21.28125 -72.75 C -19.414062 -72.175781 -17.675781 -71.09375 -16.0625 -69.5 C -14.445312 -67.914062 -12.910156 -65.601562 -11.453125 -62.5625 C -10.003906 -59.519531 -8.597656 -55.507812 -7.234375 -50.53125 Z M -17 -50.53125 "/></g></g><g style="fill:#000000;fill-opacity:1;"><g transform="translate(1368.932664, 465.954776)"><path style="stroke:none" d="M 46.5 -42.0625 L 46.5 0 L 35.484375 0 L 35.484375 -18.15625 L 20.203125 -18.15625 L 20.203125 -16.765625 C 20.203125 -14.347656 19.707031 -12.660156 18.71875 -11.703125 C 17.738281 -10.742188 16.316406 -10.265625 14.453125 -10.265625 C 13.304688 -10.265625 12.046875 -10.632812 10.671875 -11.375 C 9.304688 -12.113281 8.003906 -13.085938 6.765625 -14.296875 C 5.535156 -15.503906 4.523438 -16.804688 3.734375 -18.203125 C 2.941406 -19.597656 2.546875 -20.925781 2.546875 -22.1875 C 2.546875 -23.601562 2.941406 -24.789062 3.734375 -25.75 C 4.523438 -26.707031 6.070312 -27.1875 8.375 -27.1875 L 9.203125 -27.1875 L 9.203125 -42.0625 L 0 -42.0625 L 0 -51.09375 L 54.3125 -51.09375 L 54.3125 -42.0625 Z M 35.484375 -42.0625 L 20.203125 -42.0625 L 20.203125 -27.1875 L 35.484375 -27.1875 Z M 35.484375 -42.0625 "/></g></g><g style="fill:#000000;fill-opacity:1;"><g transform="translate(1422.00864, 465.954776)"><path style="stroke:none" d="M 0 -51.09375 L 33.03125 -51.09375 L 33.03125 -42.0625 L 0 -42.0625 Z M 20.203125 -21.765625 L 20.203125 -19.640625 C 20.203125 -17.441406 19.738281 -15.863281 18.8125 -14.90625 C 17.882812 -13.945312 16.539062 -13.46875 14.78125 -13.46875 C 13.53125 -13.46875 12.191406 -13.835938 10.765625 -14.578125 C 9.335938 -15.316406 8.003906 -16.289062 6.765625 -17.5 C 5.535156 -18.707031 4.523438 -20.007812 3.734375 -21.40625 C 2.941406 -22.800781 2.546875 -24.128906 2.546875 -25.390625 C 2.546875 -26.753906 2.914062 -28 3.65625 -29.125 C 4.394531 -30.25 5.96875 -30.8125 8.375 -30.8125 L 33.1875 -30.8125 L 33.1875 -21.765625 Z M 20.203125 -21.765625 "/></g></g><g style="fill:#000000;fill-opacity:1;"><g transform="translate(1449.039685, 465.954776)"><path style="stroke:none" d="M 44.6875 -42.0625 L 44.6875 0 L 33.6875 0 L 33.6875 -24.5625 L 26.203125 -24.5625 C 23.191406 -24.5625 20.945312 -24.410156 19.46875 -24.109375 C 17.988281 -23.804688 16.8125 -23.300781 15.9375 -22.59375 C 14.726562 -21.601562 14.125 -20.207031 14.125 -18.40625 C 14.125 -16.539062 14.972656 -14.609375 16.671875 -12.609375 C 18.367188 -10.609375 20.863281 -8.378906 24.15625 -5.921875 L 17 1.390625 C 14.425781 -0.742188 12.097656 -2.945312 10.015625 -5.21875 C 7.941406 -7.488281 6.273438 -9.867188 5.015625 -12.359375 C 3.753906 -14.859375 3.125 -17.472656 3.125 -20.203125 C 3.125 -22.179688 3.492188 -23.960938 4.234375 -25.546875 C 4.972656 -27.140625 5.941406 -28.457031 7.140625 -29.5 C 8.785156 -30.914062 10.769531 -31.953125 13.09375 -32.609375 C 15.425781 -33.273438 18.726562 -33.609375 23 -33.609375 L 33.6875 -33.609375 L 33.6875 -42.0625 L 0 -42.0625 L 0 -51.09375 L 52.421875 -51.09375 L 52.421875 -42.0625 Z M 44.6875 -42.0625 "/></g></g><g style="fill:#000000;fill-opacity:1;"><g transform="translate(1500.308081, 465.954776)"><path style="stroke:none" d=""/></g></g><g style="fill:#000000;fill-opacity:1;"><g transform="translate(1520.84827, 465.954776)"><path style="stroke:none" d="M 42.234375 -42.0625 L 42.234375 -30.640625 C 43.492188 -31.410156 44.859375 -31.984375 46.328125 -32.359375 C 47.804688 -32.742188 49.425781 -32.9375 51.1875 -32.9375 C 55.070312 -32.9375 58.257812 -31.734375 60.75 -29.328125 C 63.25 -26.921875 64.5 -23.582031 64.5 -19.3125 C 64.5 -16.894531 64.046875 -14.191406 63.140625 -11.203125 C 62.234375 -8.222656 60.765625 -5.226562 58.734375 -2.21875 L 49.125 -7.5625 C 50.332031 -9.257812 51.359375 -11.007812 52.203125 -12.8125 C 53.054688 -14.625 53.484375 -16.488281 53.484375 -18.40625 C 53.484375 -20.425781 53.054688 -21.847656 52.203125 -22.671875 C 51.359375 -23.492188 50.253906 -23.90625 48.890625 -23.90625 C 47.628906 -23.90625 46.421875 -23.535156 45.265625 -22.796875 C 44.117188 -22.054688 43.109375 -21.25 42.234375 -20.375 L 42.234375 0 L 31.21875 0 L 31.21875 -12.90625 C 29.6875 -12.019531 28.070312 -11.382812 26.375 -11 C 24.675781 -10.625 22.785156 -10.4375 20.703125 -10.4375 C 18.179688 -10.4375 15.988281 -10.804688 14.125 -11.546875 C 12.269531 -12.285156 10.765625 -13.285156 9.609375 -14.546875 C 8.242188 -16.078125 7.234375 -17.84375 6.578125 -19.84375 C 5.921875 -21.84375 5.59375 -24.675781 5.59375 -28.34375 L 5.59375 -42.0625 L 0 -42.0625 L 0 -51.09375 L 68.59375 -51.09375 L 68.59375 -42.0625 Z M 16.59375 -42.0625 L 16.59375 -29 C 16.59375 -26.425781 16.726562 -24.617188 17 -23.578125 C 17.28125 -22.535156 17.773438 -21.632812 18.484375 -20.875 C 19.410156 -19.9375 20.914062 -19.46875 23 -19.46875 C 24.695312 -19.46875 26.226562 -19.820312 27.59375 -20.53125 C 28.96875 -21.25 30.175781 -22.070312 31.21875 -23 L 31.21875 -42.0625 Z M 16.59375 -42.0625 "/></g></g><g style="fill:#000000;fill-opacity:1;"><g transform="translate(1569.65154, 465.954776)"><path style="stroke:none" d="M -7.0625 20.125 C -10.351562 21.382812 -13.53125 22.015625 -16.59375 22.015625 C -19.550781 22.015625 -22.070312 21.46875 -24.15625 20.375 C -26.238281 19.28125 -27.835938 17.828125 -28.953125 16.015625 C -30.078125 14.210938 -30.640625 12.242188 -30.640625 10.109375 C -30.640625 6.378906 -29.320312 3.347656 -26.6875 1.015625 C -24.0625 -1.304688 -20.425781 -2.46875 -15.78125 -2.46875 C -11.664062 -2.46875 -8.035156 -1.6875 -4.890625 -0.125 C -1.742188 1.4375 1.113281 3.503906 3.6875 6.078125 C 6.269531 8.648438 8.679688 11.523438 10.921875 14.703125 L 2.953125 19.46875 C 0.273438 15.144531 -2.523438 11.789062 -5.453125 9.40625 C -8.390625 7.019531 -11.609375 5.828125 -15.109375 5.828125 C -16.921875 5.828125 -18.347656 6.171875 -19.390625 6.859375 C -20.429688 7.546875 -20.953125 8.570312 -20.953125 9.9375 C -20.953125 11.3125 -20.484375 12.285156 -19.546875 12.859375 C -18.617188 13.429688 -17.472656 13.71875 -16.109375 13.71875 C -15.003906 13.71875 -13.929688 13.59375 -12.890625 13.34375 C -11.859375 13.101562 -10.875 12.765625 -9.9375 12.328125 Z M -7.0625 20.125 "/></g></g><g style="fill:#000000;fill-opacity:1;"><g transform="translate(1588.302344, 465.954776)"><path style="stroke:none" d="M 53.3125 -51.09375 L 53.3125 -42.0625 L 45.59375 -42.0625 L 45.59375 0 L 34.59375 0 L 34.59375 -12.078125 C 31.082031 -9.828125 26.863281 -8.703125 21.9375 -8.703125 C 18.207031 -8.703125 15 -9.550781 12.3125 -11.25 C 9.632812 -12.945312 7.472656 -15.285156 5.828125 -18.265625 C 4.191406 -21.253906 3.039062 -24.640625 2.375 -28.421875 C 5.5 -29.023438 7.828125 -29.96875 9.359375 -31.25 C 10.898438 -32.539062 11.671875 -34.3125 11.671875 -36.5625 C 11.671875 -37.601562 11.503906 -38.585938 11.171875 -39.515625 C 10.847656 -40.441406 10.4375 -41.289062 9.9375 -42.0625 L 0 -42.0625 L 0 -51.09375 Z M 14.21875 -23.65625 C 15.09375 -21.800781 16.226562 -20.351562 17.625 -19.3125 C 19.019531 -18.269531 20.785156 -17.75 22.921875 -17.75 C 27.578125 -17.75 31.46875 -19.71875 34.59375 -23.65625 L 34.59375 -42.0625 L 20.53125 -42.0625 C 21.195312 -40.914062 21.71875 -39.738281 22.09375 -38.53125 C 22.476562 -37.320312 22.671875 -35.953125 22.671875 -34.421875 C 22.671875 -29.441406 19.851562 -25.851562 14.21875 -23.65625 Z M 14.21875 -23.65625 "/></g></g><g style="fill:#000000;fill-opacity:1;"><g transform="translate(1640.474531, 465.954776)"><path style="stroke:none" d="M 17.578125 -42.0625 L 17.578125 0 L 6.578125 0 L 6.578125 -42.0625 L 0 -42.0625 L 0 -51.09375 L 25.390625 -51.09375 L 25.390625 -42.0625 Z M 17.578125 -42.0625 "/></g></g><g style="fill:#000000;fill-opacity:1;"><g transform="translate(1664.629873, 465.954776)"><path style="stroke:none" d="M 0 -42.0625 L 0 -51.09375 L 61.78125 -51.09375 L 61.78125 -42.0625 L 54.0625 -42.0625 L 54.0625 0 L 43.046875 0 L 43.046875 -26.046875 C 41.953125 -25.992188 40.816406 -25.648438 39.640625 -25.015625 C 38.460938 -24.390625 37.351562 -23.304688 36.3125 -21.765625 C 35.269531 -20.234375 34.367188 -18.097656 33.609375 -15.359375 L 23.328125 -18.484375 C 23.828125 -20.296875 24.429688 -21.96875 25.140625 -23.5 C 24.265625 -24.15625 23.375 -24.6875 22.46875 -25.09375 C 21.5625 -25.507812 20.535156 -25.71875 19.390625 -25.71875 C 17.691406 -25.71875 16.375 -25.265625 15.4375 -24.359375 C 14.507812 -23.453125 14.046875 -22.316406 14.046875 -20.953125 C 14.046875 -19.472656 14.457031 -18.046875 15.28125 -16.671875 C 16.101562 -15.304688 17.429688 -13.773438 19.265625 -12.078125 C 21.097656 -10.378906 23.601562 -8.328125 26.78125 -5.921875 L 19.640625 1.390625 C 15.804688 -1.671875 12.671875 -4.472656 10.234375 -7.015625 C 7.796875 -9.566406 5.988281 -12.019531 4.8125 -14.375 C 3.632812 -16.726562 3.046875 -19.191406 3.046875 -21.765625 C 3.046875 -25.054688 3.769531 -27.671875 5.21875 -29.609375 C 6.664062 -31.554688 8.472656 -32.941406 10.640625 -33.765625 C 12.804688 -34.585938 14.957031 -35 17.09375 -35 C 19.832031 -35 22.238281 -34.65625 24.3125 -33.96875 C 26.394531 -33.28125 28.476562 -32.226562 30.5625 -30.8125 C 33.90625 -33.550781 38.015625 -34.921875 42.890625 -34.921875 L 43.046875 -34.921875 L 43.046875 -42.0625 Z M 0 -42.0625 "/></g></g></g></svg>